<svg xmlns="http://www.w3.org/2000/svg" viewBox="0 0 32 32" width="32" height="32">
  <!-- Background -->
  <rect width="32" height="32" rx="6" fill="#00a3e0"/>
  
  <!-- Tooth shape -->
  <path d="M16 8 C11 8 9 11 9 15 C9 18 10 21 11 23 C12 24 13 25 14.5 25 C15 25 15.5 24.5 15.5 23 L15.5 16 C15.5 15.5 15.7 15 16 15 C16.3 15 16.5 15.5 16.5 16 L16.5 23 C16.5 24.5 17 25 17.5 25 C19 25 20 24 21 23 C22 21 23 18 23 15 C23 11 21 8 16 8 Z" 
        fill="white"/>
  
  <!-- Shine -->
  <ellipse cx="13" cy="12" rx="2" ry="3" fill="white" opacity="0.5"/>
</svg>
